#!OML:ASF F:\VICON\USERDATA\INSTALL\rory3\rory3.ASF
:FULLY-SPECIFIED
:DEGREES
1
root -1.43851 16.4063 -26.0539 2.36072 5.99872 1.58029
lowerback 13.6691 -0.344527 -8.03525
upperback -5.07308 -1.76337 1.9802
thorax -13.1095 -0.0343452 7.21872
lowerneck -6.63303 -6.29578 -4.59201
upperneck 17.3738 -8.89566 4.83188
head 6.80906 -4.21342 1.58317
rclavicle 1.21631e-014 1.07344e-014
rhumerus -40.4054 -1.50855 -82.3577
rradius 25.562
rwrist 8.2031
rhand -7.54822 17.7117
rfingers 7.12502
rthumb 18.3435 -11.4434
lclavicle 1.21631e-014 1.07344e-014
lhumerus -38.2109 9.49887 82.3079
lradius 27.5527
lwrist 0.546419
lhand -5.19655 17.8127
lfingers 7.12502
lthumb 20.6046 46.7391
rfemur -14.5584 14.0111 22.9027
rtibia 29.2128
rfoot -14.6584 -12.2804
rtoes 16.9198
lfemur -21.4406 1.80918 -17.9587
ltibia 71.8276
lfoot 9.33734 1.74083
ltoes 10.0798
2
root -1.41948 16.4209 -25.9393 2.14945 5.05491 1.58478
lowerback 13.3351 0.0539191 -7.79201
upperback -4.67107 -1.14862 1.88314
thorax -12.5533 0.184065 6.79747
lowerneck -7.88801 -6.4169 -4.48796
upperneck 17.8624 -9.03826 4.72112
head 7.18548 -4.2529 1.47024
rclavicle 2.62768e-014 -1.35174e-014
rhumerus -39.505 -1.52684 -82.3522
rradius 25.556
rwrist 8.20429
rhand -8.00104 17.9916
rfingers 7.12502
rthumb 17.9078 -11.2039
lclavicle 2.62768e-014 -1.35174e-014
lhumerus -37.5626 9.54683 82.444
lradius 27.6368
lwrist 0.474622
lhand -5.21253 17.2509
lfingers 7.12502
lthumb 20.5892 46.179
rfemur -13.5572 14.1733 22.984
rtibia 28.4941
rfoot -14.4432 -11.5916
rtoes 16.5545
lfemur -21.7763 2.73927 -18.2128
ltibia 71.8887
lfoot 7.96334 1.67194
ltoes 10.6559
3
root -1.41858 16.4256 -25.8443 2.10548 4.91294 1.52236
lowerback 13.0972 0.126815 -7.68275
upperback -4.54061 -1.003 1.91178
thorax -12.2837 0.226709 6.72128
lowerneck -8.11848 -6.44391 -4.67887
upperneck 18.0014 -9.06431 4.81902
head 7.28664 -4.26297 1.52024
rclavicle -9.23106e-015 1.03368e-014
rhumerus -39.0545 -1.21931 -82.3483
rradius 25.6806
rwrist 7.97033
rhand -8.01088 18.0317
rfingers 7.12502
rthumb 17.8984 -11.1647
lclavicle -9.23106e-015 1.03368e-014
lhumerus -37.2687 9.83776 82.434
lradius 27.5806
lwrist 0.357305
lhand -5.23546 16.9177
lfingers 7.12502
lthumb 20.5672 45.8482
rfemur -12.6928 14.1986 23.1869
rtibia 27.6984
rfoot -14.4595 -11.4708
rtoes 16.6319
lfemur -22.6135 2.99053 -18.2506
ltibia 71.8708
lfoot 6.90827 1.59397
ltoes 10.9251
4
root -1.38656 16.4398 -25.6889 1.57124 3.92644 1.52979
lowerback 12.3578 0.494738 -7.2705
upperback -4.08073 -0.38222 1.73279
thorax -11.4156 0.422794 6.11345
lowerneck -8.52568 -6.61722 -4.47056
upperneck 18.0844 -9.29792 4.67566
head 7.38096 -4.36369 1.40279
rclavicle -4.13721e-015 6.75868e-015
rhumerus -38.5442 -1.48267 -82.2396
rradius 25.5502
rwrist 8.11286
rhand -8.16174 18.3957
rfingers 7.12502
rthumb 17.7532 -10.8139
lclavicle -4.13721e-015 6.75868e-015
lhumerus -36.7151 9.72578 82.5263
lradius 27.4978
lwrist 0.696941
lhand -5.11567 17.6039
lfingers 7.12502
lthumb 20.6823 46.5219
rfemur -11.1491 14.5924 23.3668
rtibia 27.0011
rfoot -14.4363 -11.0518
rtoes 15.8673
lfemur -22.1093 3.69255 -18.5614
ltibia 71.482
lfoot 5.16104 1.79573
ltoes 10.8213
5
root -1.38213 16.4443 -25.5816 1.39637 3.71697 1.5198
lowerback 12.2637 0.70165 -7.07115
upperback -3.94427 -0.0742954 1.59059
thorax -11.2508 0.536788 5.76979
lowerneck -9.48608 -6.78556 -4.1489
upperneck 18.5759 -9.55672 4.55634
head 7.70402 -4.44927 1.24674
rclavicle 4.24902e-015 1.51076e-014
rhumerus -38.0422 -2.17338 -82.0604
rradius 25.2343
rwrist 8.64704
rhand -8.16808 18.7857
rfingers 7.12502
rthumb 17.7471 -10.4244
lclavicle 4.24902e-015 1.51076e-014
lhumerus -36.4568 9.40679 82.6079
lradius 27.5348
lwrist 1.03682
lhand -5.12839 18.0357
lfingers 7.12502
lthumb 20.67 46.9551
rfemur -10.2209 14.7348 23.5456
rtibia 26.5271
rfoot -14.778 -10.9188
rtoes 16.5973
lfemur -22.6159 3.77555 -18.7146
ltibia 71.2901
lfoot 3.75405 2.02784
ltoes 11.1074
6
root -1.38668 16.4461 -25.5122 1.51153 3.22371 1.5439
lowerback 12.2558 0.993101 -7.04102
upperback -4.04694 0.307478 1.46833
thorax -11.4213 0.720947 5.53435
lowerneck -8.47104 -6.8984 -4.39441
upperneck 18.1653 -9.76012 4.96028
head 7.43172 -4.55417 1.43645
rclavicle -8.39244e-015 -8.15017e-015
rhumerus -37.6343 -2.68548 -81.9967
rradius 25.0232
rwrist 8.90909
rhand -8.03346 18.3838
rfingers 7.12502
rthumb 17.8766 -10.8146
lclavicle -8.39244e-015 -8.15017e-015
lhumerus -36.765 9.02736 82.6171
lradius 27.9267
lwrist 1.24363
lhand -5.13346 17.8744
lfingers 7.12502
lthumb 20.6652 46.7942
rfemur -9.92686 14.7333 23.5337
rtibia 26.1432
rfoot -14.7263 -10.5486
rtoes 16.3335
lfemur -23.6588 4.19116 -18.8713
ltibia 71.0927
lfoot 2.32519 2.07665
ltoes 11.2524
7
root -1.39448 16.4414 -25.4477 1.77151 2.64115 1.51098
lowerback 12.0229 1.23946 -6.96668
upperback -4.08946 0.654956 1.34932
thorax -11.3796 0.874842 5.28196
lowerneck -8.07566 -6.97598 -4.31835
upperneck 17.8556 -9.89166 5.06202
head 7.26869 -4.61655 1.46214
rclavicle 7.20594e-016 -6.55989e-015
rhumerus -37.1663 -2.93666 -82.0812
rradius 25.1682
rwrist 8.72211
rhand -7.64818 17.6303
rfingers 7.12502
rthumb 18.2473 -11.5339
lclavicle 7.20594e-016 -6.55989e-015
lhumerus -36.6447 8.75905 82.5239
lradius 28.2342
lwrist 1.46619
lhand -4.78372 18.242
lfingers 7.12502
lthumb 21.0012 47.125
rfemur -9.99342 14.7737 23.5357
rtibia 26.0122
rfoot -14.625 -10.1118
rtoes 15.7402
lfemur -24.9042 4.66364 -18.9489
ltibia 70.9367
lfoot 0.850155 1.94251
ltoes 12.6016
8
root -1.39688 16.4227 -25.3462 1.12374 4.71525 1.73802
lowerback 12.4081 0.618815 -6.73639
upperback -3.67015 -0.173628 1.19674
thorax -11.0045 0.429906 5.16217
lowerneck -8.50205 -7.02799 -4.24798
upperneck 17.9155 -9.95787 5.0311
head 7.36197 -4.63583 1.41785
rclavicle 8.10669e-015 9.14409e-015
rhumerus -36.5655 -3.06021 -82.1567
rradius 25.2757
rwrist 8.52624
rhand -7.45097 17.3492
rfingers 7.12502
rthumb 18.437 -11.797
lclavicle 8.10669e-015 9.14409e-015
lhumerus -36.1247 8.79044 82.4762
lradius 28.2113
lwrist 1.355
lhand -4.55807 18.316
lfingers 7.12502
lthumb 21.218 47.1747
rfemur -8.41907 14.3437 23.8836
rtibia 25.9989
rfoot -16.0237 -11.5081
rtoes 16.3387
lfemur -25.3082 2.43852 -19.2458
ltibia 70.6524
lfoot -0.500732 1.8778
ltoes 13.2507
9
root -1.39875 16.4315 -25.286 1.91871 2.67825 1.55179
lowerback 11.6346 1.27104 -6.78063
upperback -3.86513 0.750691 1.23573
thorax -10.8998 0.877382 5.02762
lowerneck -8.58658 -7.01154 -4.36896
upperneck 17.9674 -9.92756 5.09017
head 7.4018 -4.62131 1.45517
rclavicle -9.97961e-015 -9.93923e-016
rhumerus -36.3367 -2.75216 -82.2342
rradius 25.4229
rwrist 8.31226
rhand -7.63381 17.8294
rfingers 7.12502
rthumb 18.2612 -11.3334
lclavicle -9.97961e-015 -9.93923e-016
lhumerus -36.2537 8.72449 82.5205
lradius 28.5027
lwrist 1.58687
lhand -4.68063 17.8895
lfingers 7.12502
lthumb 21.1002 46.7615
rfemur -9.52628 15.0626 23.7157
rtibia 26.1292
rfoot -15.3787 -10.411
rtoes 15.2777
lfemur -26.9129 4.13629 -19.237
ltibia 70.3681
lfoot -2.592 1.70751
ltoes 11.4245
10
root -1.40444 16.4079 -25.2143 1.34834 4.44556 1.68231
lowerback 12.7151 0.790159 -6.77202
upperback -3.88305 0.0300419 1.27411
thorax -11.4599 0.557219 5.2301
lowerneck -8.32412 -6.95145 -4.56631
upperneck 17.8914 -9.82741 5.14188
head 7.33808 -4.58874 1.52372
rclavicle 9.27455e-015 -5.96354e-015
rhumerus -36.4239 -2.31411 -82.2081
rradius 25.5443
rwrist 8.08958
rhand -7.97198 18.1412
rfingers 7.12502
rthumb 17.9358 -11.0517
lclavicle 9.27455e-015 -5.96354e-015
lhumerus -36.6511 8.86335 82.5349
lradius 28.6139
lwrist 1.74979
lhand -4.71319 17.5672
lfingers 7.12502
lthumb 21.069 46.4426
rfemur -8.17861 14.6254 24.085
rtibia 26.0261
rfoot -16.5016 -11.5008
rtoes 15.07
lfemur -27.5985 2.27804 -19.407
ltibia 69.9454
lfoot -3.97835 1.46743
ltoes 8.59503
11
root -1.44904 16.3898 -25.1973 1.84487 4.87253 1.40829
lowerback 13.4786 0.81029 -7.06198
upperback -4.27359 -0.0396738 1.48096
thorax -12.3625 0.605612 5.6591
lowerneck -8.48046 -6.96449 -4.55201
upperneck 17.9647 -9.8225 5.01972
head 7.38243 -4.5912 1.47619
rclavicle 1.42442e-014 -2.18663e-015
rhumerus -36.3204 -2.26814 -82.131
rradius 25.6558
rwrist 8.11372
rhand -7.7275 18.0628
rfingers 7.12502
rthumb 18.171 -11.1085
lclavicle 1.42442e-014 -2.18663e-015
lhumerus -36.5984 9.0066 82.5379
lradius 28.5773
lwrist 1.58239
lhand -4.38345 17.9424
lfingers 7.12502
lthumb 21.3857 46.7822
rfemur -8.5202 14.6789 24.513
rtibia 25.8945
rfoot -16.6386 -11.9608
rtoes 15.0734
lfemur -29.7051 2.02755 -18.9904
ltibia 69.5531
lfoot -4.64811 1.16762
ltoes 5.12711
12
root -1.41461 16.4166 -25.0735 2.12335 3.3592 1.41721
lowerback 12.5635 1.26629 -6.82726
upperback -4.30657 0.673303 1.3875
thorax -11.9518 0.903581 5.24407
lowerneck -8.41197 -6.98654 -4.66578
upperneck 18.1617 -9.84904 5.01766
head 7.44183 -4.60989 1.49103
rclavicle -3.15571e-015 6.75868e-015
rhumerus -36.4783 -1.93828 -82.2109
rradius 26.1555
rwrist 7.68089
rhand -7.51083 17.9264
rfingers 7.12502
rthumb 18.3795 -11.2253
lclavicle -3.15571e-015 6.75868e-015
lhumerus -36.7333 8.73739 82.6886
lradius 28.7678
lwrist 1.82522
lhand -4.43312 18.6721
lfingers 7.12502
lthumb 21.338 47.5173
rfemur -8.42826 14.9384 24.2454
rtibia 25.7101
rfoot -16.3144 -10.9114
rtoes 14.8046
lfemur -30.1014 2.84592 -19.3211
ltibia 68.4455
lfoot -5.96111 1.62744
ltoes 5.11252
13
root -1.40534 16.4093 -24.9584 1.78765 4.80087 1.69152
lowerback 12.6448 0.776648 -6.73104
upperback -4.25797 0.015424 1.29094
thorax -11.8431 0.574043 5.23197
lowerneck -7.77771 -7.03027 -4.85121
upperneck 17.9543 -9.91107 5.11577
head 7.27969 -4.66014 1.57155
rclavicle 1.97977e-014 1.09332e-014
rhumerus -36.6229 -1.50584 -82.3685
rradius 26.5512
rwrist 7.16198
rhand -7.46451 17.8047
rfingers 7.12502
rthumb 18.424 -11.3428
lclavicle 1.97977e-014 1.09332e-014
lhumerus -37.0371 8.64198 82.6818
lradius 28.7586
lwrist 2.08231
lhand -4.71798 18.6821
lfingers 7.12502
lthumb 21.0644 47.558
rfemur -7.22833 14.5951 24.3818
rtibia 25.6719
rfoot -17.4512 -11.7832
rtoes 15.4532
lfemur -30.4264 1.04983 -19.665
ltibia 67.3799
lfoot -6.89439 1.73115
ltoes 6.74213
14
root -1.42072 16.392 -24.9056 1.97059 4.62617 1.54991
lowerback 12.9127 0.919159 -6.7274
upperback -4.34039 0.187305 1.30143
thorax -12.1246 0.669295 5.20634
lowerneck -7.68152 -7.13191 -4.81296
upperneck 17.5877 -10.054 5.20006
head 7.15387 -4.72645 1.58626
rclavicle -1.93007e-014 4.96962e-015
rhumerus -36.2279 -1.6289 -82.4409
rradius 26.4929
rwrist 7.18641
rhand -7.67342 17.9631
rfingers 7.12502
rthumb 18.2231 -11.2033
lclavicle -1.93007e-014 4.96962e-015
lhumerus -36.8984 8.57935 82.5871
lradius 28.5528
lwrist 2.22582
lhand -4.8792 18.1082
lfingers 7.12502
lthumb 20.9095 47.0013
rfemur -7.06891 14.6975 24.619
rtibia 25.3689
rfoot -17.339 -11.9278
rtoes 14.3463
lfemur -31.4588 0.969959 -19.4693
ltibia 66.2574
lfoot -7.47753 1.71304
ltoes 7.0075
15
root -1.44804 16.3745 -24.8683 2.35115 4.69523 1.46402
lowerback 13.2388 1.02906 -6.8987
upperback -4.43974 0.282371 1.34296
thorax -12.4549 0.745942 5.33279
lowerneck -8.06819 -7.23691 -4.84284
upperneck 17.5652 -10.1873 5.24886
head 7.22646 -4.77971 1.57875
rclavicle 1.21197e-014 -8.54774e-015
rhumerus -35.955 -1.50104 -82.566
rradius 26.7696
rwrist 6.88442
rhand -8.13912 18.0973
rfingers 7.12502
rthumb 17.775 -11.1103
lclavicle 1.21197e-014 -8.54774e-015
lhumerus -36.6585 8.46035 82.6126
lradius 28.5179
lwrist 2.28099
lhand -5.01646 17.9579
lfingers 7.12502
lthumb 20.7776 46.8655
rfemur -7.21338 14.9572 24.8082
rtibia 25.1542
rfoot -17.4075 -12.2264
rtoes 14.6017
lfemur -32.8322 0.711964 -19.2618
ltibia 65.0706
lfoot -7.65806 1.69033
ltoes 5.91901
